<svg width="159" height="44" viewBox="0 0 159 44" fill="none" xmlns="http://www.w3.org/2000/svg">
<path d="M21.3892 39.8182C21.3892 40.294 21.299 40.6989 21.1186 41.0327C20.9396 41.3665 20.6953 41.6214 20.3857 41.7976C20.0774 41.9723 19.7308 42.0597 19.3459 42.0597C18.9581 42.0597 18.6101 41.9716 18.3018 41.7955C17.9936 41.6193 17.75 41.3643 17.571 41.0305C17.392 40.6967 17.3026 40.2926 17.3026 39.8182C17.3026 39.3423 17.392 38.9375 17.571 38.6037C17.75 38.2699 17.9936 38.0156 18.3018 37.8409C18.6101 37.6648 18.9581 37.5767 19.3459 37.5767C19.7308 37.5767 20.0774 37.6648 20.3857 37.8409C20.6953 38.0156 20.9396 38.2699 21.1186 38.6037C21.299 38.9375 21.3892 39.3423 21.3892 39.8182ZM20.4538 39.8182C20.4538 39.5099 20.4077 39.25 20.3153 39.0384C20.2244 38.8267 20.0959 38.6662 19.9297 38.5568C19.7635 38.4474 19.5689 38.3928 19.3459 38.3928C19.1229 38.3928 18.9283 38.4474 18.7621 38.5568C18.5959 38.6662 18.4666 38.8267 18.3743 39.0384C18.2834 39.25 18.2379 39.5099 18.2379 39.8182C18.2379 40.1264 18.2834 40.3864 18.3743 40.598C18.4666 40.8097 18.5959 40.9702 18.7621 41.0795C18.9283 41.1889 19.1229 41.2436 19.3459 41.2436C19.5689 41.2436 19.7635 41.1889 19.9297 41.0795C20.0959 40.9702 20.2244 40.8097 20.3153 40.598C20.4077 40.3864 20.4538 40.1264 20.4538 39.8182ZM23.7985 38.1051H24.7743C25.1238 38.1051 25.4334 38.179 25.7033 38.3267C25.9746 38.4744 26.187 38.6825 26.3404 38.951C26.4952 39.218 26.5726 39.532 26.5726 39.8928C26.5726 40.2422 26.4952 40.5469 26.3404 40.8068C26.187 41.0668 25.9746 41.2692 25.7033 41.4141C25.4334 41.5575 25.1238 41.6293 24.7743 41.6293H23.7985C23.4476 41.6293 23.1365 41.5582 22.8652 41.4162C22.5939 41.2727 22.3809 41.071 22.226 40.8111C22.0726 40.5511 21.9959 40.2443 21.9959 39.8906C21.9959 39.5298 22.0733 39.2159 22.2282 38.9489C22.3844 38.6804 22.5982 38.473 22.8695 38.3267C23.1408 38.179 23.4505 38.1051 23.7985 38.1051ZM23.7985 38.8764C23.611 38.8764 23.4455 38.9141 23.302 38.9893C23.16 39.0632 23.0492 39.1754 22.9696 39.326C22.8901 39.4766 22.8503 39.6648 22.8503 39.8906C22.8503 40.1065 22.8908 40.2862 22.9718 40.4297C23.0542 40.5732 23.1664 40.6804 23.3084 40.7514C23.4505 40.8224 23.6138 40.858 23.7985 40.858H24.7807C24.9668 40.858 25.1294 40.8217 25.2686 40.7493C25.4093 40.6768 25.5179 40.5689 25.5946 40.4254C25.6728 40.282 25.7118 40.1044 25.7118 39.8928C25.7118 39.6669 25.6728 39.4787 25.5946 39.3281C25.5179 39.1776 25.4093 39.0646 25.2686 38.9893C25.1294 38.9141 24.9668 38.8764 24.7807 38.8764H23.7985ZM24.7232 37.5597V42.179H23.8475V37.5597H24.7232ZM27.2523 37.6364H28.1728V40.3807H28.209L30.0946 37.6364H30.9022V42H29.9796V39.2536H29.9476L28.0513 42H27.2523V37.6364ZM35.8683 41.2628L35.815 43.0312H34.9371V42H34.6303V41.2628H35.8683ZM31.6644 42V37.6364H32.5508V41.2585H34.3661V37.6364H35.2631V42H31.6644ZM36.4281 37.6364H37.3485V40.3807H37.3848L39.2704 37.6364H40.0779V42H39.1554V39.2536H39.1234L37.2271 42H36.4281V37.6364ZM41.5923 42H40.6037L42.1101 37.6364H43.299L44.8033 42H43.8146L42.7216 38.6335H42.6875L41.5923 42ZM41.5305 40.2848H43.8658V41.005H41.5305V40.2848ZM45.092 42V41.2585L45.2156 41.2479C45.3746 41.2351 45.5032 41.1747 45.6012 41.0668C45.6992 40.9574 45.7724 40.7834 45.8207 40.5447C45.8704 40.3047 45.9023 39.9822 45.9165 39.5774L45.989 37.6364H48.9506V42H48.0536V38.3757H46.8455L46.7773 39.8949C46.7546 40.3835 46.6964 40.7827 46.6026 41.0923C46.5103 41.402 46.3626 41.6307 46.1594 41.7784C45.9577 41.9261 45.6815 42 45.3306 42H45.092ZM50.3185 39.2493H51.3583C51.7049 39.2493 52.0032 39.3054 52.2532 39.4176C52.5046 39.5284 52.6985 39.6854 52.8349 39.8885C52.9712 40.0916 53.0387 40.331 53.0373 40.6065C53.0387 40.8807 52.9712 41.1229 52.8349 41.3331C52.6985 41.5419 52.5046 41.7053 52.2532 41.8232C52.0032 41.9411 51.7049 42 51.3583 42H49.7283V37.6364H50.6488V41.2585H51.3583C51.5245 41.2585 51.6644 41.2287 51.7781 41.169C51.8917 41.108 51.9776 41.0277 52.0359 40.9283C52.0955 40.8274 52.1246 40.7173 52.1232 40.598C52.1246 40.4247 52.0593 40.2784 51.9272 40.1591C51.7965 40.0384 51.6069 39.978 51.3583 39.978H50.3185V39.2493ZM53.7718 42V37.6364H54.6944V39.4368H56.5673V37.6364H57.4877V42H56.5673V40.1974H54.6944V42H53.7718ZM58.8556 39.2493H59.8954C60.242 39.2493 60.5403 39.3054 60.7903 39.4176C61.0417 39.5284 61.2356 39.6854 61.372 39.8885C61.5083 40.0916 61.5758 40.331 61.5744 40.6065C61.5758 40.8807 61.5083 41.1229 61.372 41.3331C61.2356 41.5419 61.0417 41.7053 60.7903 41.8232C60.5403 41.9411 60.242 42 59.8954 42H58.2654V37.6364H59.1859V41.2585H59.8954C60.0616 41.2585 60.2015 41.2287 60.3152 41.169C60.4288 41.108 60.5147 41.0277 60.573 40.9283C60.6326 40.8274 60.6618 40.7173 60.6603 40.598C60.6618 40.4247 60.5964 40.2784 60.4643 40.1591C60.3336 40.0384 60.144 39.978 59.8954 39.978H58.8556V39.2493ZM62.8507 37.6364V42H61.9302V37.6364H62.8507ZM63.6097 37.6364H64.5302V40.3807H64.5664L66.4521 37.6364H67.2596V42H66.337V39.2536H66.305L64.4087 42H63.6097V37.6364ZM65.8597 36.4943H66.4925C66.4911 36.7528 66.3952 36.9609 66.2049 37.1186C66.016 37.2763 65.7603 37.3551 65.4379 37.3551C65.114 37.3551 64.8576 37.2763 64.6687 37.1186C64.4798 36.9609 64.3853 36.7528 64.3853 36.4943H65.0138C65.0124 36.5923 65.0437 36.6804 65.1076 36.7585C65.1729 36.8366 65.283 36.8757 65.4379 36.8757C65.5884 36.8757 65.6964 36.8374 65.7617 36.7607C65.8271 36.6839 65.8597 36.5952 65.8597 36.4943ZM73.2607 39.1641H72.3274C72.3104 39.0433 72.2756 38.9361 72.223 38.8423C72.1705 38.7472 72.103 38.6662 72.0206 38.5994C71.9382 38.5327 71.843 38.4815 71.7351 38.446C71.6286 38.4105 71.5128 38.3928 71.3878 38.3928C71.1619 38.3928 70.9652 38.4489 70.7976 38.5611C70.63 38.6719 70.5 38.8338 70.4077 39.0469C70.3153 39.2585 70.2692 39.5156 70.2692 39.8182C70.2692 40.1293 70.3153 40.3906 70.4077 40.6023C70.5014 40.8139 70.6321 40.9737 70.7997 41.0817C70.9673 41.1896 71.1612 41.2436 71.3814 41.2436C71.505 41.2436 71.6193 41.2273 71.7244 41.1946C71.831 41.1619 71.9254 41.1143 72.0078 41.0518C72.0902 40.9879 72.1584 40.9105 72.2124 40.8196C72.2678 40.7287 72.3061 40.625 72.3274 40.5085L73.2607 40.5128C73.2365 40.7131 73.1761 40.9062 73.0795 41.0923C72.9844 41.277 72.8558 41.4425 72.6939 41.5888C72.5334 41.7337 72.3416 41.8487 72.1186 41.9339C71.897 42.0178 71.6463 42.0597 71.3665 42.0597C70.9773 42.0597 70.6293 41.9716 70.3224 41.7955C70.017 41.6193 69.7756 41.3643 69.598 41.0305C69.4219 40.6967 69.3338 40.2926 69.3338 39.8182C69.3338 39.3423 69.4233 38.9375 69.6023 38.6037C69.7813 38.2699 70.0241 38.0156 70.331 37.8409C70.6378 37.6648 70.983 37.5767 71.3665 37.5767C71.6193 37.5767 71.8537 37.6122 72.0696 37.6832C72.2869 37.7543 72.4794 37.858 72.647 37.9943C72.8146 38.1293 72.951 38.2947 73.0561 38.4908C73.1626 38.6868 73.2308 38.9112 73.2607 39.1641ZM74.5923 42H73.6037L75.1101 37.6364H76.299L77.8033 42H76.8146L75.7216 38.6335H75.6875L74.5923 42ZM74.5305 40.2848H76.8658V41.005H74.5305V40.2848ZM78.3285 37.6364H79.2489V40.3807H79.2852L81.1708 37.6364H81.9783V42H81.0558V39.2536H81.0238L79.1275 42H78.3285V37.6364ZM80.5785 36.4943H81.2113C81.2099 36.7528 81.114 36.9609 80.9237 37.1186C80.7347 37.2763 80.479 37.3551 80.1566 37.3551C79.8327 37.3551 79.5763 37.2763 79.3874 37.1186C79.1985 36.9609 79.104 36.7528 79.104 36.4943H79.7326C79.7312 36.5923 79.7624 36.6804 79.8263 36.7585C79.8917 36.8366 80.0018 36.8757 80.1566 36.8757C80.3072 36.8757 80.4151 36.8374 80.4805 36.7607C80.5458 36.6839 80.5785 36.5952 80.5785 36.4943ZM82.5744 38.397V37.6364H86.1582V38.397H84.8223V42H83.9103V38.397H82.5744ZM89.7244 42.0597C89.4063 42.0597 89.1229 42.005 88.8743 41.8956C88.6271 41.7848 88.4318 41.6328 88.2884 41.4396C88.1463 41.245 88.0732 41.0206 88.0689 40.7663H88.9979C89.0036 40.8729 89.0384 40.9666 89.1023 41.0476C89.1676 41.1271 89.2543 41.1889 89.3622 41.233C89.4702 41.277 89.5916 41.299 89.7266 41.299C89.8672 41.299 89.9915 41.2741 90.0994 41.2244C90.2074 41.1747 90.2919 41.1058 90.353 41.0178C90.4141 40.9297 90.4446 40.8281 90.4446 40.7131C90.4446 40.5966 90.4119 40.4936 90.3466 40.4041C90.2827 40.3132 90.1903 40.2422 90.0696 40.1911C89.9503 40.1399 89.8082 40.1143 89.6435 40.1143H89.2365V39.4368H89.6435C89.7827 39.4368 89.9055 39.4126 90.0121 39.3643C90.12 39.3161 90.2038 39.2493 90.2635 39.1641C90.3232 39.0774 90.353 38.9766 90.353 38.8615C90.353 38.7521 90.3267 38.6562 90.2741 38.5739C90.223 38.4901 90.1506 38.4247 90.0568 38.3778C89.9645 38.331 89.8565 38.3075 89.733 38.3075C89.608 38.3075 89.4936 38.3303 89.3899 38.3757C89.2862 38.4197 89.2031 38.483 89.1406 38.5653C89.0781 38.6477 89.0447 38.7443 89.0405 38.8551H88.1562C88.1605 38.6037 88.2322 38.3821 88.3714 38.1903C88.5107 37.9986 88.6982 37.8487 88.9339 37.7408C89.1712 37.6314 89.4389 37.5767 89.7372 37.5767C90.0384 37.5767 90.3018 37.6314 90.5277 37.7408C90.7536 37.8501 90.929 37.9979 91.054 38.1839C91.1804 38.3686 91.2429 38.576 91.2415 38.8061C91.2429 39.0504 91.1669 39.2543 91.0135 39.4176C90.8615 39.581 90.6634 39.6847 90.419 39.7287V39.7628C90.7401 39.804 90.9844 39.9155 91.152 40.0973C91.321 40.2777 91.4048 40.5036 91.4034 40.7749C91.4048 41.0234 91.3331 41.2443 91.1882 41.4375C91.0447 41.6307 90.8466 41.7827 90.5938 41.8935C90.3409 42.0043 90.0511 42.0597 89.7244 42.0597ZM92.8443 42H91.8556L93.362 37.6364H94.551L96.0552 42H95.0666L93.9735 38.6335H93.9395L92.8443 42ZM92.7825 40.2848H95.1177V41.005H92.7825V40.2848ZM100.225 39.1641H99.2923C99.2752 39.0433 99.2404 38.9361 99.1879 38.8423C99.1353 38.7472 99.0678 38.6662 98.9854 38.5994C98.9031 38.5327 98.8079 38.4815 98.6999 38.446C98.5934 38.4105 98.4776 38.3928 98.3526 38.3928C98.1268 38.3928 97.93 38.4489 97.7624 38.5611C97.5948 38.6719 97.4648 38.8338 97.3725 39.0469C97.2802 39.2585 97.234 39.5156 97.234 39.8182C97.234 40.1293 97.2802 40.3906 97.3725 40.6023C97.4663 40.8139 97.5969 40.9737 97.7646 41.0817C97.9322 41.1896 98.1261 41.2436 98.3462 41.2436C98.4698 41.2436 98.5842 41.2273 98.6893 41.1946C98.7958 41.1619 98.8903 41.1143 98.9727 41.0518C99.055 40.9879 99.1232 40.9105 99.1772 40.8196C99.2326 40.7287 99.271 40.625 99.2923 40.5085L100.225 40.5128C100.201 40.7131 100.141 40.9062 100.044 41.0923C99.9492 41.277 99.8207 41.4425 99.6587 41.5888C99.4982 41.7337 99.3065 41.8487 99.0835 41.9339C98.8619 42.0178 98.6112 42.0597 98.3313 42.0597C97.9421 42.0597 97.5941 41.9716 97.2873 41.7955C96.9819 41.6193 96.7404 41.3643 96.5629 41.0305C96.3867 40.6967 96.2987 40.2926 96.2987 39.8182C96.2987 39.3423 96.3881 38.9375 96.5671 38.6037C96.7461 38.2699 96.989 38.0156 97.2958 37.8409C97.6026 37.6648 97.9478 37.5767 98.3313 37.5767C98.5842 37.5767 98.8185 37.6122 99.0344 37.6832C99.2518 37.7543 99.4442 37.858 99.6119 37.9943C99.7795 38.1293 99.9158 38.2947 100.021 38.4908C100.127 38.6868 100.196 38.9112 100.225 39.1641ZM100.721 38.397V37.6364H104.305V38.397H102.969V42H102.057V38.397H100.721ZM104.895 42V37.6364H106.616C106.947 37.6364 107.229 37.6996 107.462 37.826C107.695 37.951 107.873 38.125 107.995 38.348C108.119 38.5696 108.18 38.8253 108.18 39.1151C108.18 39.4048 108.118 39.6605 107.993 39.8821C107.868 40.1037 107.687 40.2763 107.45 40.3999C107.214 40.5234 106.928 40.5852 106.593 40.5852H105.496V39.8459H106.444C106.621 39.8459 106.768 39.8153 106.883 39.7543C106.999 39.6918 107.086 39.6058 107.143 39.4964C107.201 39.3857 107.23 39.2585 107.23 39.1151C107.23 38.9702 107.201 38.8437 107.143 38.7358C107.086 38.6264 106.999 38.5419 106.883 38.4822C106.766 38.4212 106.619 38.3906 106.44 38.3906H105.817V42H104.895ZM112.79 39.8182C112.79 40.294 112.699 40.6989 112.519 41.0327C112.34 41.3665 112.096 41.6214 111.786 41.7976C111.478 41.9723 111.131 42.0597 110.746 42.0597C110.358 42.0597 110.01 41.9716 109.702 41.7955C109.394 41.6193 109.15 41.3643 108.971 41.0305C108.792 40.6967 108.703 40.2926 108.703 39.8182C108.703 39.3423 108.792 38.9375 108.971 38.6037C109.15 38.2699 109.394 38.0156 109.702 37.8409C110.01 37.6648 110.358 37.5767 110.746 37.5767C111.131 37.5767 111.478 37.6648 111.786 37.8409C112.096 38.0156 112.34 38.2699 112.519 38.6037C112.699 38.9375 112.79 39.3423 112.79 39.8182ZM111.854 39.8182C111.854 39.5099 111.808 39.25 111.716 39.0384C111.625 38.8267 111.496 38.6662 111.33 38.5568C111.164 38.4474 110.969 38.3928 110.746 38.3928C110.523 38.3928 110.329 38.4474 110.162 38.5568C109.996 38.6662 109.867 38.8267 109.775 39.0384C109.684 39.25 109.638 39.5099 109.638 39.8182C109.638 40.1264 109.684 40.3864 109.775 40.598C109.867 40.8097 109.996 40.9702 110.162 41.0795C110.329 41.1889 110.523 41.2436 110.746 41.2436C110.969 41.2436 111.164 41.1889 111.33 41.0795C111.496 40.9702 111.625 40.8097 111.716 40.598C111.808 40.3864 111.854 40.1264 111.854 39.8182ZM113.473 37.6364H114.393V40.3807H114.43L116.315 37.6364H117.123V42H116.2V39.2536H116.168L114.272 42H113.473V37.6364ZM115.723 36.4943H116.356C116.354 36.7528 116.259 36.9609 116.068 37.1186C115.879 37.2763 115.624 37.3551 115.301 37.3551C114.977 37.3551 114.721 37.2763 114.532 37.1186C114.343 36.9609 114.249 36.7528 114.249 36.4943H114.877C114.876 36.5923 114.907 36.6804 114.971 36.7585C115.036 36.8366 115.146 36.8757 115.301 36.8757C115.452 36.8757 115.56 36.8374 115.625 36.7607C115.69 36.6839 115.723 36.5952 115.723 36.4943ZM123.717 41.2862L123.657 43.027H122.82V42H122.464V41.2862H123.717ZM118.06 37.6364H118.961V41.2585H120.214V37.6364H121.111V41.2585H122.349V37.6364H123.246V42H118.06V37.6364ZM124.278 37.6364H125.198V40.3807H125.234L127.12 37.6364H127.928V42H127.005V39.2536H126.973L125.077 42H124.278V37.6364ZM131.33 42L129.928 40.1399H129.612V42H128.69V37.6364H129.612V39.3793H129.798L131.247 37.6364H132.395L130.693 39.6605L132.474 42H131.33ZM133.69 42H132.701L134.208 37.6364H135.397L136.901 42H135.912L134.819 38.6335H134.785L133.69 42ZM133.628 40.2848H135.963V41.005H133.628V40.2848Z" fill="#4C71E9"/>
<path d="M9.7532 3.09091V14H7.20703V3.09091H9.7532ZM0.43679 14L3.82457 8.22585L0.53267 3.09091H3.78196L6.1044 7.46946H10.9251L13.1623 3.09091H16.3956L13.2209 8.19389L16.5234 14H13.354L11.2607 9.89844H5.74751L3.58487 14H0.43679ZM24.4522 14L21.0218 9.4723H20.4252V14H17.7885V3.09091H20.4252V7.32564H20.8461L24.2232 3.09091H27.5204L23.3176 8.24183L27.7388 14H24.4522ZM31.9243 14V3.09091H39.3763V5.23224H34.561V6.93679H35.9992C36.887 6.93679 37.6594 7.08061 38.3163 7.36825C38.9768 7.65589 39.4864 8.06072 39.8451 8.58274C40.2073 9.10476 40.3884 9.71911 40.3884 10.4258C40.3884 11.1325 40.2073 11.7539 39.8451 12.2901C39.4864 12.8263 38.9768 13.2454 38.3163 13.5472C37.6594 13.8491 36.887 14 35.9992 14H31.9243ZM34.561 11.9119H35.9992C36.3827 11.9119 36.7059 11.8462 36.9687 11.7148C37.235 11.5799 37.4356 11.3988 37.5706 11.1715C37.7091 10.9407 37.7783 10.685 37.7783 10.4045C37.7783 9.99964 37.6256 9.66229 37.3202 9.3924C37.0148 9.11896 36.5745 8.98224 35.9992 8.98224H34.561V11.9119ZM51.9474 8.54545C51.9474 9.74574 51.7165 10.7631 51.2549 11.5977C50.7932 12.4322 50.1682 13.0661 49.3799 13.4993C48.5951 13.9325 47.7144 14.1491 46.7378 14.1491C45.7577 14.1491 44.8753 13.9308 44.0905 13.494C43.3057 13.0572 42.6824 12.4233 42.2208 11.5923C41.7627 10.7578 41.5336 9.74219 41.5336 8.54545C41.5336 7.34517 41.7627 6.32777 42.2208 5.49325C42.6824 4.65874 43.3057 4.02486 44.0905 3.59162C44.8753 3.15838 45.7577 2.94176 46.7378 2.94176C47.7144 2.94176 48.5951 3.15838 49.3799 3.59162C50.1682 4.02486 50.7932 4.65874 51.2549 5.49325C51.7165 6.32777 51.9474 7.34517 51.9474 8.54545ZM49.252 8.54545C49.252 7.83523 49.1508 7.23509 48.9484 6.74503C48.7496 6.25497 48.4619 5.88388 48.0855 5.63175C47.7126 5.37962 47.2634 5.25355 46.7378 5.25355C46.2158 5.25355 45.7666 5.37962 45.3902 5.63175C45.0138 5.88388 44.7243 6.25497 44.5219 6.74503C44.3231 7.23509 44.2236 7.83523 44.2236 8.54545C44.2236 9.25568 44.3231 9.85582 44.5219 10.3459C44.7243 10.8359 45.0138 11.207 45.3902 11.4592C45.7666 11.7113 46.2158 11.8374 46.7378 11.8374C47.2634 11.8374 47.7126 11.7113 48.0855 11.4592C48.4619 11.207 48.7496 10.8359 48.9484 10.3459C49.1508 9.85582 49.252 9.25568 49.252 8.54545ZM53.0127 14V11.9332L53.311 11.9013C53.6945 11.8551 54.007 11.7006 54.2485 11.4379C54.49 11.1715 54.6729 10.7489 54.7971 10.1701C54.925 9.58771 55.0067 8.80114 55.0422 7.81037L55.218 3.09091H62.8724V14H60.3209V5.16832H57.6523L57.4818 8.77983C57.4214 10.0263 57.2634 11.033 57.0077 11.8001C56.752 12.5636 56.3561 13.1211 55.8199 13.4727C55.2872 13.8242 54.5716 14 53.6732 14H53.0127ZM66.2163 6.93679H68.6452C69.5366 6.93679 70.3107 7.08061 70.9677 7.36825C71.6246 7.65589 72.1325 8.06072 72.4911 8.58274C72.8533 9.10476 73.0344 9.71911 73.0344 10.4258C73.0344 11.1325 72.8533 11.7539 72.4911 12.2901C72.1325 12.8263 71.6246 13.2454 70.9677 13.5472C70.3107 13.8491 69.5366 14 68.6452 14H64.5703V3.09091H67.2017V11.9119H68.6452C69.0288 11.9119 69.3519 11.8462 69.6147 11.7148C69.881 11.5799 70.0817 11.3988 70.2166 11.1715C70.3551 10.9407 70.4226 10.685 70.419 10.4045C70.4226 9.99964 70.2717 9.66229 69.9663 9.3924C69.6609 9.11896 69.2205 8.98224 68.6452 8.98224H66.2163V6.93679ZM75.3809 3.09091H77.9483V11.9332H80.8461V3.09091H83.3922V11.9332H86.2367V3.09091H88.7882V14H75.3809V3.09091ZM101.313 8.54545C101.313 9.74574 101.082 10.7631 100.62 11.5977C100.158 12.4322 99.5335 13.0661 98.7451 13.4993C97.9603 13.9325 97.0796 14.1491 96.1031 14.1491C95.123 14.1491 94.2405 13.9308 93.4557 13.494C92.6709 13.0572 92.0477 12.4233 91.586 11.5923C91.1279 10.7578 90.8989 9.74219 90.8989 8.54545C90.8989 7.34517 91.1279 6.32777 91.586 5.49325C92.0477 4.65874 92.6709 4.02486 93.4557 3.59162C94.2405 3.15838 95.123 2.94176 96.1031 2.94176C97.0796 2.94176 97.9603 3.15838 98.7451 3.59162C99.5335 4.02486 100.158 4.65874 100.62 5.49325C101.082 6.32777 101.313 7.34517 101.313 8.54545ZM98.6173 8.54545C98.6173 7.83523 98.5161 7.23509 98.3137 6.74503C98.1148 6.25497 97.8271 5.88388 97.4507 5.63175C97.0779 5.37962 96.6286 5.25355 96.1031 5.25355C95.5811 5.25355 95.1318 5.37962 94.7554 5.63175C94.379 5.88388 94.0896 6.25497 93.8872 6.74503C93.6883 7.23509 93.5889 7.83523 93.5889 8.54545C93.5889 9.25568 93.6883 9.85582 93.8872 10.3459C94.0896 10.8359 94.379 11.207 94.7554 11.4592C95.1318 11.7113 95.5811 11.8374 96.1031 11.8374C96.6286 11.8374 97.0779 11.7113 97.4507 11.4592C97.8271 11.207 98.1148 10.8359 98.3137 10.3459C98.5161 9.85582 98.6173 9.25568 98.6173 8.54545ZM102.852 3.09091H105.483V9.37642H105.574L109.867 3.09091H112.136V14H109.5V7.70383H109.43L105.084 14H102.852V3.09091ZM108.568 0.193182H110.283C110.279 0.860795 110.027 1.39702 109.526 1.80185C109.029 2.20668 108.354 2.40909 107.502 2.40909C106.65 2.40909 105.973 2.20668 105.473 1.80185C104.976 1.39702 104.729 0.860795 104.732 0.193182H106.432C106.428 0.427557 106.508 0.640625 106.671 0.832386C106.835 1.02415 107.112 1.12003 107.502 1.12003C107.882 1.12003 108.154 1.02592 108.317 0.837713C108.481 0.649502 108.564 0.434658 108.568 0.193182ZM10.728 25.0433H8.06463C8.02912 24.7699 7.95632 24.5231 7.84624 24.3029C7.73615 24.0827 7.59055 23.8945 7.40945 23.7383C7.22834 23.582 7.01349 23.4631 6.76492 23.3814C6.51989 23.2962 6.24822 23.2536 5.94993 23.2536C5.42081 23.2536 4.96449 23.3832 4.58097 23.6424C4.20099 23.9016 3.90803 24.2763 3.70206 24.7663C3.49964 25.2564 3.39844 25.8494 3.39844 26.5455C3.39844 27.2699 3.50142 27.8771 3.70739 28.3672C3.9169 28.8537 4.20987 29.2212 4.58629 29.4698C4.96626 29.7148 5.41548 29.8374 5.93395 29.8374C6.22514 29.8374 6.4897 29.8001 6.72763 29.7255C6.96911 29.6509 7.1804 29.5426 7.36151 29.4006C7.54617 29.255 7.69709 29.0792 7.81428 28.8732C7.93501 28.6637 8.01847 28.4276 8.06463 28.1648L10.728 28.1808C10.6818 28.6637 10.5415 29.1396 10.3072 29.6083C10.0763 30.0771 9.75852 30.505 9.35369 30.892C8.94886 31.2756 8.45526 31.581 7.87287 31.8082C7.29403 32.0355 6.62997 32.1491 5.88068 32.1491C4.89347 32.1491 4.00923 31.9325 3.22798 31.4993C2.45028 31.0625 1.83594 30.4268 1.38494 29.5923C0.933949 28.7578 0.708452 27.7422 0.708452 26.5455C0.708452 25.3452 0.9375 24.3278 1.3956 23.4933C1.85369 22.6587 2.47337 22.0249 3.25462 21.5916C4.03587 21.1584 4.91122 20.9418 5.88068 20.9418C6.54119 20.9418 7.15199 21.0341 7.71307 21.2188C8.27415 21.3999 8.76776 21.6662 9.19389 22.0178C9.62003 22.3658 9.96626 22.7937 10.2326 23.3015C10.4989 23.8093 10.6641 24.3899 10.728 25.0433ZM14.3182 32H11.4844L15.1651 21.0909H18.6754L22.3562 32H19.5224L16.9602 23.8395H16.875L14.3182 32ZM13.94 27.7067H19.8633V29.7095H13.94V27.7067ZM23.5307 21.0909H26.796L29.5659 27.8452H29.6937L32.4636 21.0909H35.7289V32H33.1614V25.299H33.0708L30.4501 31.9308H28.8095L26.1887 25.2617H26.0982V32H23.5307V21.0909ZM47.0202 21.0909V32H44.4207V23.2003H40.3724V32H37.773V21.0909H47.0202ZM58.9653 25.0433H56.3019C56.2664 24.7699 56.1936 24.5231 56.0835 24.3029C55.9735 24.0827 55.8279 23.8945 55.6468 23.7383C55.4656 23.582 55.2508 23.4631 55.0022 23.3814C54.7572 23.2962 54.4855 23.2536 54.1872 23.2536C53.6581 23.2536 53.2018 23.3832 52.8183 23.6424C52.4383 23.9016 52.1453 24.2763 51.9394 24.7663C51.7369 25.2564 51.6357 25.8494 51.6357 26.5455C51.6357 27.2699 51.7387 27.8771 51.9447 28.3672C52.1542 28.8537 52.4472 29.2212 52.8236 29.4698C53.2036 29.7148 53.6528 29.8374 54.1713 29.8374C54.4624 29.8374 54.727 29.8001 54.9649 29.7255C55.2064 29.6509 55.4177 29.5426 55.5988 29.4006C55.7835 29.255 55.9344 29.0792 56.0516 28.8732C56.1723 28.6637 56.2558 28.4276 56.3019 28.1648L58.9653 28.1808C58.9191 28.6637 58.7789 29.1396 58.5445 29.6083C58.3137 30.0771 57.9958 30.505 57.591 30.892C57.1862 31.2756 56.6926 31.581 56.1102 31.8082C55.5313 32.0355 54.8673 32.1491 54.118 32.1491C53.1308 32.1491 52.2465 31.9325 51.4653 31.4993C50.6876 31.0625 50.0732 30.4268 49.6222 29.5923C49.1713 28.7578 48.9458 27.7422 48.9458 26.5455C48.9458 25.3452 49.1748 24.3278 49.6329 23.4933C50.091 22.6587 50.7107 22.0249 51.4919 21.5916C52.2732 21.1584 53.1485 20.9418 54.118 20.9418C54.7785 20.9418 55.3893 21.0341 55.9504 21.2188C56.5115 21.3999 57.0051 21.6662 57.4312 22.0178C57.8573 22.3658 58.2036 22.7937 58.4699 23.3015C58.7362 23.8093 58.9014 24.3899 58.9653 25.0433ZM70.7706 26.5455C70.7706 27.7457 70.5398 28.7631 70.0781 29.5977C69.6165 30.4322 68.9915 31.0661 68.2031 31.4993C67.4183 31.9325 66.5376 32.1491 65.5611 32.1491C64.581 32.1491 63.6985 31.9308 62.9137 31.494C62.1289 31.0572 61.5057 30.4233 61.044 29.5923C60.5859 28.7578 60.3569 27.7422 60.3569 26.5455C60.3569 25.3452 60.5859 24.3278 61.044 23.4933C61.5057 22.6587 62.1289 22.0249 62.9137 21.5916C63.6985 21.1584 64.581 20.9418 65.5611 20.9418C66.5376 20.9418 67.4183 21.1584 68.2031 21.5916C68.9915 22.0249 69.6165 22.6587 70.0781 23.4933C70.5398 24.3278 70.7706 25.3452 70.7706 26.5455ZM68.0753 26.5455C68.0753 25.8352 67.9741 25.2351 67.7717 24.745C67.5728 24.255 67.2852 23.8839 66.9087 23.6317C66.5359 23.3796 66.0866 23.2536 65.5611 23.2536C65.0391 23.2536 64.5898 23.3796 64.2134 23.6317C63.837 23.8839 63.5476 24.255 63.3452 24.745C63.1463 25.2351 63.0469 25.8352 63.0469 26.5455C63.0469 27.2557 63.1463 27.8558 63.3452 28.3459C63.5476 28.8359 63.837 29.207 64.2134 29.4592C64.5898 29.7113 65.0391 29.8374 65.5611 29.8374C66.0866 29.8374 66.5359 29.7113 66.9087 29.4592C67.2852 29.207 67.5728 28.8359 67.7717 28.3459C67.9741 27.8558 68.0753 27.2557 68.0753 26.5455ZM72.31 32V21.0909H74.9467V25.4695H79.2454V21.0909H81.8768V32H79.2454V27.6161H74.9467V32H72.31ZM83.5307 21.0909H86.1621V27.3764H86.2527L90.546 21.0909H92.8152V32H90.1784V25.7038H90.1092L85.7626 32H83.5307V21.0909ZM94.4731 32V21.0909H102.08V23.2322H97.1098V25.4695H101.691V27.6161H97.1098V29.8587H102.08V32H94.4731ZM103.731 32V21.0909H108.28C109.097 21.0909 109.78 21.2063 110.331 21.4371C110.885 21.668 111.3 21.9911 111.577 22.4066C111.858 22.8221 111.998 23.3033 111.998 23.8501C111.998 24.2656 111.911 24.6367 111.737 24.9634C111.563 25.2866 111.323 25.5547 111.018 25.7678C110.712 25.9808 110.359 26.13 109.958 26.2152V26.3217C110.398 26.343 110.805 26.462 111.178 26.6786C111.554 26.8952 111.856 27.1971 112.083 27.5842C112.31 27.9677 112.424 28.4222 112.424 28.9478C112.424 29.5337 112.275 30.0575 111.977 30.5192C111.678 30.9773 111.247 31.3395 110.682 31.6058C110.118 31.8686 109.432 32 108.626 32H103.731ZM106.368 29.8746H107.998C108.569 29.8746 108.99 29.7663 109.26 29.5497C109.533 29.3331 109.67 29.0312 109.67 28.6442C109.67 28.3636 109.604 28.1222 109.473 27.9197C109.342 27.7138 109.155 27.5558 108.914 27.4457C108.672 27.332 108.383 27.2752 108.046 27.2752H106.368V29.8746ZM106.368 25.576H107.827C108.115 25.576 108.37 25.5281 108.594 25.4322C108.818 25.3363 108.992 25.1978 109.116 25.0167C109.244 24.8356 109.308 24.6172 109.308 24.3615C109.308 23.9957 109.178 23.7081 108.919 23.4986C108.66 23.2891 108.31 23.1843 107.87 23.1843H106.368V25.576ZM123.594 25.0433H120.931C120.895 24.7699 120.823 24.5231 120.712 24.3029C120.602 24.0827 120.457 23.8945 120.276 23.7383C120.095 23.582 119.88 23.4631 119.631 23.3814C119.386 23.2962 119.114 23.2536 118.816 23.2536C118.287 23.2536 117.831 23.3832 117.447 23.6424C117.067 23.9016 116.774 24.2763 116.568 24.7663C116.366 25.2564 116.265 25.8494 116.265 26.5455C116.265 27.2699 116.368 27.8771 116.574 28.3672C116.783 28.8537 117.076 29.2212 117.453 29.4698C117.832 29.7148 118.282 29.8374 118.8 29.8374C119.091 29.8374 119.356 29.8001 119.594 29.7255C119.835 29.6509 120.047 29.5426 120.228 29.4006C120.412 29.255 120.563 29.0792 120.68 28.8732C120.801 28.6637 120.885 28.4276 120.931 28.1648L123.594 28.1808C123.548 28.6637 123.408 29.1396 123.173 29.6083C122.943 30.0771 122.625 30.505 122.22 30.892C121.815 31.2756 121.321 31.581 120.739 31.8082C120.16 32.0355 119.496 32.1491 118.747 32.1491C117.76 32.1491 116.875 31.9325 116.094 31.4993C115.316 31.0625 114.702 30.4268 114.251 29.5923C113.8 28.7578 113.575 27.7422 113.575 26.5455C113.575 25.3452 113.804 24.3278 114.262 23.4933C114.72 22.6587 115.34 22.0249 116.121 21.5916C116.902 21.1584 117.777 20.9418 118.747 20.9418C119.407 20.9418 120.018 21.0341 120.579 21.2188C121.14 21.3999 121.634 21.6662 122.06 22.0178C122.486 22.3658 122.832 22.7937 123.099 23.3015C123.365 23.8093 123.53 24.3899 123.594 25.0433ZM131.767 32L128.336 27.4723H127.74V32H125.103V21.0909H127.74V25.3256H128.161L131.538 21.0909H134.835L130.632 26.2418L135.053 32H131.767ZM136.016 21.0909H138.647V27.3764H138.738L143.031 21.0909H145.301V32H142.664V25.7038H142.595L138.248 32H136.016V21.0909ZM146.958 21.0909H149.59V27.3764H149.68L153.974 21.0909H156.243V32H153.606V25.7038H153.537L149.19 32H146.958V21.0909ZM152.674 18.1932H154.389C154.386 18.8608 154.134 19.397 153.633 19.8018C153.136 20.2067 152.461 20.4091 151.609 20.4091C150.756 20.4091 150.08 20.2067 149.579 19.8018C149.082 19.397 148.835 18.8608 148.839 18.1932H150.538C150.534 18.4276 150.614 18.6406 150.778 18.8324C150.941 19.0241 151.218 19.12 151.609 19.12C151.989 19.12 152.26 19.0259 152.424 18.8377C152.587 18.6495 152.67 18.4347 152.674 18.1932Z" fill="black"/>
<path d="M129.724 14V11.8693L133.794 8.50284C134.064 8.27912 134.295 8.0696 134.487 7.87429C134.682 7.67543 134.831 7.47124 134.934 7.26172C135.04 7.0522 135.094 6.8196 135.094 6.56392C135.094 6.28338 135.033 6.04368 134.913 5.84482C134.795 5.64595 134.632 5.49325 134.423 5.38672C134.213 5.27663 133.972 5.22159 133.698 5.22159C133.425 5.22159 133.183 5.27663 132.974 5.38672C132.768 5.4968 132.608 5.65838 132.494 5.87145C132.381 6.08452 132.324 6.34375 132.324 6.64915H129.511C129.511 5.8821 129.684 5.22159 130.028 4.66761C130.373 4.11364 130.859 3.6875 131.488 3.3892C132.116 3.09091 132.853 2.94176 133.698 2.94176C134.572 2.94176 135.328 3.08203 135.967 3.36257C136.61 3.63956 137.105 4.03018 137.453 4.53445C137.805 5.03871 137.981 5.62997 137.981 6.30824C137.981 6.72727 137.894 7.14453 137.72 7.56001C137.546 7.97195 137.233 8.42827 136.782 8.92898C136.331 9.42969 135.69 10.0263 134.859 10.7188L133.837 11.571V11.6349H138.098V14H129.724ZM143.683 2.94176C144.319 2.94176 144.921 3.04297 145.489 3.24538C146.057 3.44425 146.559 3.75852 146.996 4.18821C147.437 4.6179 147.781 5.17898 148.03 5.87145C148.282 6.56037 148.41 7.39489 148.413 8.375C148.417 9.26989 148.305 10.0742 148.078 10.788C147.854 11.4982 147.532 12.1037 147.113 12.6044C146.698 13.1051 146.197 13.4886 145.611 13.755C145.029 14.0178 144.379 14.1491 143.662 14.1491C142.856 14.1491 142.147 13.9947 141.536 13.6857C140.926 13.3768 140.439 12.9613 140.077 12.4393C139.715 11.9173 139.503 11.3366 139.443 10.6974H142.362C142.433 11.0277 142.589 11.2674 142.831 11.4165C143.072 11.5621 143.349 11.6349 143.662 11.6349C144.287 11.6349 144.743 11.3651 145.031 10.8253C145.322 10.282 145.469 9.55753 145.473 8.65199H145.409C145.27 8.9858 145.061 9.27166 144.78 9.50959C144.5 9.74751 144.173 9.9304 143.8 10.0582C143.427 10.1861 143.033 10.25 142.618 10.25C141.961 10.25 141.385 10.1026 140.892 9.80788C140.398 9.50959 140.013 9.10298 139.736 8.58807C139.459 8.0696 139.319 7.48011 139.315 6.8196C139.312 6.04545 139.494 5.36719 139.864 4.7848C140.233 4.20241 140.746 3.74964 141.403 3.42649C142.06 3.10334 142.82 2.94176 143.683 2.94176ZM143.704 5.17898C143.41 5.17898 143.147 5.24645 142.916 5.38139C142.689 5.51634 142.509 5.69922 142.378 5.93004C142.25 6.16087 142.188 6.42187 142.192 6.71307C142.195 7.00426 142.261 7.26527 142.389 7.49609C142.52 7.72692 142.698 7.9098 142.921 8.04474C143.149 8.17969 143.41 8.24716 143.704 8.24716C143.921 8.24716 144.122 8.20987 144.306 8.1353C144.491 8.05717 144.651 7.94886 144.786 7.81037C144.924 7.66832 145.031 7.50497 145.105 7.32031C145.183 7.1321 145.221 6.92969 145.217 6.71307C145.214 6.42187 145.146 6.16087 145.015 5.93004C144.883 5.69922 144.704 5.51634 144.477 5.38139C144.249 5.24645 143.992 5.17898 143.704 5.17898ZM149.669 14V3.09091H157.339V5.47727H152.631V6.75568H153.739C154.655 6.75568 155.456 6.90305 156.141 7.1978C156.83 7.49254 157.364 7.90803 157.744 8.44425C158.128 8.98047 158.32 9.6108 158.32 10.3352C158.32 11.0597 158.128 11.6971 157.744 12.2475C157.364 12.7979 156.83 13.2276 156.141 13.5366C155.456 13.8455 154.655 14 153.739 14H149.669ZM152.631 11.6776H153.739C154.094 11.6776 154.392 11.619 154.633 11.5018C154.878 11.3846 155.063 11.223 155.187 11.017C155.315 10.8111 155.379 10.5767 155.379 10.3139C155.379 9.94105 155.239 9.6321 154.958 9.38707C154.678 9.13849 154.271 9.0142 153.739 9.0142H152.631V11.6776Z" fill="#4C71E9"/>
</svg>
