<svg width="36" height="36" viewBox="0 0 36 36" fill="none" xmlns="http://www.w3.org/2000/svg">
<path d="M17.6666 11.0161C17.3253 10.334 16.6122 9.78232 15.7363 9.87988C14.9528 9.96694 13.7894 10.2583 12.9963 11.2138C12.1821 12.1951 11.8784 13.7255 12.5036 16.0184C13.1713 18.4645 14.1626 20.876 15.3951 22.8216C16.6183 24.7531 18.1251 26.2993 19.8536 26.8921C21.3823 27.4162 22.5513 27.1974 23.4039 26.6217C24.2264 26.0665 24.6779 25.2313 24.9116 24.6529C25.1732 24.0054 25.0008 23.3313 24.6596 22.8343L23.4009 21.0038C23.1228 20.5993 22.7225 20.2945 22.2586 20.1341C21.7947 19.9737 21.2916 19.9662 20.8231 20.1126L19.0836 20.6564C19.0287 20.6752 18.9694 20.6775 18.9132 20.6629C18.857 20.6484 18.8062 20.6177 18.7673 20.5746C17.9929 19.6676 17.1254 18.4028 16.8896 17.1227C16.8821 17.0885 16.8872 17.0528 16.904 17.0221C17.1599 16.592 17.6001 16.1046 18.0384 15.6781C18.7809 14.9553 19.0622 13.8064 18.5722 12.8273L17.6666 11.0161Z" fill="#4C71E9"/>
<circle cx="18" cy="18" r="17.5" stroke="#4C71E9"/>
</svg>
