<svg width="18" height="18" viewBox="0 0 18 18" fill="none" xmlns="http://www.w3.org/2000/svg">
<g clip-path="url(#clip0_228_1238)">
<path d="M8.99938 0.360107C4.22758 0.360107 0.359375 4.22831 0.359375 9.00011C0.359375 13.7719 4.22758 17.6401 8.99938 17.6401C13.7712 17.6401 17.6394 13.7719 17.6394 9.00011C17.6394 4.22831 13.7712 0.360107 8.99938 0.360107ZM12.3222 10.108C12.3222 10.108 13.0863 10.8622 13.2744 11.2123C13.2798 11.2195 13.2825 11.2267 13.2843 11.2303C13.3608 11.359 13.3788 11.4589 13.341 11.5336C13.278 11.6578 13.062 11.719 12.9882 11.7244H11.6382C11.5446 11.7244 11.3484 11.7001 11.1108 11.5363C10.9281 11.4085 10.7481 11.1988 10.5726 10.9945C10.3107 10.6903 10.0839 10.4275 9.85528 10.4275C9.82624 10.4275 9.79738 10.432 9.76978 10.441C9.59698 10.4968 9.37558 10.7434 9.37558 11.4004C9.37558 11.6056 9.21358 11.7235 9.09928 11.7235H8.48098C8.27037 11.7235 7.17327 11.6497 6.20127 10.6246C5.01147 9.36911 3.94047 6.85091 3.93147 6.82751C3.86397 6.66461 4.00347 6.57731 4.15557 6.57731H5.51907C5.70087 6.57731 5.76027 6.68801 5.80167 6.78611C5.85027 6.90041 6.02847 7.35491 6.32097 7.86611C6.79527 8.69951 7.08598 9.03791 7.31908 9.03791C7.36278 9.03739 7.40571 9.02627 7.44418 9.00551C7.74837 8.83631 7.69167 7.75181 7.67817 7.52681C7.67817 7.48451 7.67727 7.04171 7.52157 6.82931C7.40997 6.67541 7.22007 6.61691 7.10487 6.59531C7.1515 6.53097 7.21293 6.4788 7.28397 6.44321C7.49277 6.33881 7.86898 6.32351 8.24248 6.32351H8.45038C8.85538 6.32891 8.95978 6.35501 9.10648 6.39191C9.40348 6.46301 9.40977 6.65471 9.38368 7.31081C9.37558 7.49711 9.36748 7.70771 9.36748 7.95611C9.36748 8.01011 9.36478 8.06771 9.36478 8.12891C9.35577 8.46281 9.34498 8.84171 9.58078 8.99741C9.61153 9.01669 9.64707 9.02698 9.68338 9.02711C9.76528 9.02711 10.0119 9.02711 10.6797 7.88141C10.8856 7.51264 11.0646 7.12944 11.2152 6.73481C11.2287 6.71141 11.2683 6.63941 11.3151 6.61151C11.3496 6.5939 11.3879 6.58494 11.4267 6.58541H13.0296C13.2042 6.58541 13.3239 6.61151 13.3464 6.67901C13.386 6.78611 13.3392 7.11281 12.6075 8.10371L12.2808 8.53481C11.6175 9.40421 11.6175 9.44831 12.3222 10.108Z" fill="#4C71E9"/>
</g>
<defs>
<clipPath id="clip0_228_1238">
<rect width="18" height="18" fill="white"/>
</clipPath>
</defs>
</svg>
