<svg width="18" height="18" viewBox="0 0 18 18" fill="none" xmlns="http://www.w3.org/2000/svg">
<g clip-path="url(#clip0_228_1240)">
<path fill-rule="evenodd" clip-rule="evenodd" d="M9 0.5C4.30545 0.5 0.5 4.30545 0.5 9C0.5 10.6065 0.94625 12.111 1.7223 13.3928L0.9641 15.97C0.920567 16.118 0.917702 16.2749 0.955808 16.4244C0.993913 16.5738 1.07158 16.7103 1.18065 16.8193C1.28971 16.9284 1.42614 17.0061 1.5756 17.0442C1.72506 17.0823 1.88203 17.0794 2.03 17.0359L4.6072 16.2777C5.93208 17.0793 7.45149 17.5021 9 17.5C13.6946 17.5 17.5 13.6945 17.5 9C17.5 4.30545 13.6946 0.5 9 0.5ZM7.0773 10.9235C8.79685 12.6422 10.4382 12.8692 11.0179 12.8904C11.8994 12.9227 12.7578 12.2495 13.0919 11.4684C13.1341 11.3712 13.1494 11.2645 13.1362 11.1594C13.1231 11.0543 13.0819 10.9546 13.0171 10.8708C12.5513 10.2758 11.9215 9.8483 11.3061 9.4233C11.1776 9.33445 11.0197 9.29882 10.8655 9.32385C10.7113 9.34889 10.5728 9.43266 10.479 9.5576L9.969 10.3353C9.94219 10.3772 9.9004 10.4071 9.85221 10.4191C9.80401 10.4312 9.75305 10.4243 9.70975 10.3999C9.3638 10.2019 8.85975 9.8653 8.49765 9.5032C8.13555 9.1411 7.81935 8.66 7.6417 8.33615C7.61967 8.295 7.61331 8.24727 7.62378 8.20179C7.63425 8.15631 7.66085 8.11617 7.69865 8.0888L8.48405 7.5057C8.59614 7.40824 8.66847 7.27297 8.68728 7.12563C8.70609 6.9783 8.67006 6.82919 8.58605 6.7067C8.20525 6.1491 7.76155 5.4402 7.1181 4.97015C7.03506 4.90997 6.93778 4.87245 6.83584 4.86127C6.7339 4.85009 6.63081 4.86565 6.5367 4.9064C5.7547 5.2413 5.0781 6.0998 5.1104 6.98295C5.13165 7.56265 5.3586 9.204 7.0773 10.9235Z" fill="#4C71E9"/>
</g>
<defs>
<clipPath id="clip0_228_1240">
<rect width="18" height="18" fill="white"/>
</clipPath>
</defs>
</svg>
